<svg xmlns="http://www.w3.org/2000/svg" viewBox="0 0 52 52">
  <!-- Dino — Dinosaur kid -->
  <circle cx="26" cy="26" r="26" fill="#F0FDF4"/>
  <!-- Spikes -->
  <polygon points="18,8 21,16 15,16" fill="#166534"/>
  <polygon points="26,5 29,14 23,14" fill="#166534"/>
  <polygon points="34,8 37,16 31,16" fill="#166534"/>
  <!-- Head -->
  <ellipse cx="26" cy="26" rx="14" ry="13" fill="#4ADE80"/>
  <!-- Snout -->
  <ellipse cx="26" cy="32" rx="7" ry="5" fill="#86EFAC"/>
  <!-- Nostrils -->
  <circle cx="23" cy="31" r="1" fill="#166534"/>
  <circle cx="29" cy="31" r="1" fill="#166534"/>
  <!-- Eyes -->
  <circle cx="20" cy="22" r="3.5" fill="white"/>
  <circle cx="32" cy="22" r="3.5" fill="white"/>
  <circle cx="21" cy="22" r="2" fill="#166534"/>
  <circle cx="33" cy="22" r="2" fill="#166534"/>
  <circle cx="21.5" cy="21.5" r=".8" fill="white"/>
  <circle cx="33.5" cy="21.5" r=".8" fill="white"/>
  <!-- Smile -->
  <path d="M20 35 Q26 39 32 35" stroke="#166534" stroke-width="1.5" stroke-linecap="round" fill="none"/>
  <!-- Body hint -->
  <ellipse cx="26" cy="46" rx="10" ry="7" fill="#4ADE80"/>
  <!-- Spots -->
  <circle cx="22" cy="27" r="1.5" fill="#86EFAC"/>
  <circle cx="30" cy="27" r="1.5" fill="#86EFAC"/>
</svg>
