<svg xmlns="http://www.w3.org/2000/svg" viewBox="0 0 52 52">
  <!-- Hero — Superhero kid -->
  <circle cx="26" cy="26" r="26" fill="#EEEDFE"/>
  <!-- Cape -->
  <path d="M12 28 Q8 40 16 48 Q26 52 36 48 Q44 40 40 28 Q33 34 26 34 Q19 34 12 28Z" fill="#7F77DD"/>
  <!-- Cape inner -->
  <path d="M16 30 Q20 36 26 36 Q32 36 36 30 Q33 34 26 34 Q19 34 16 30Z" fill="#534AB7"/>
  <!-- Body / suit -->
  <ellipse cx="26" cy="40" rx="11" ry="8" fill="#534AB7"/>
  <!-- Star emblem -->
  <polygon points="26,34 27.5,38 31.5,38 28.5,40.5 29.5,44.5 26,42 22.5,44.5 23.5,40.5 20.5,38 24.5,38" fill="#F97316"/>
  <!-- Head -->
  <circle cx="26" cy="22" r="12" fill="#FCDDBF"/>
  <!-- Mask -->
  <path d="M14 20 Q18 16 22 19 Q26 21 30 19 Q34 16 38 20 L38 23 Q34 20 30 22 Q26 24 22 22 Q18 20 14 23Z" fill="#7F77DD"/>
  <!-- Eyes in mask -->
  <ellipse cx="21" cy="21" rx="2.5" ry="2" fill="white"/>
  <ellipse cx="31" cy="21" rx="2.5" ry="2" fill="white"/>
  <circle cx="21" cy="21" r="1.2" fill="#534AB7"/>
  <circle cx="31" cy="21" r="1.2" fill="#534AB7"/>
  <circle cx="21.5" cy="20.5" r=".5" fill="white"/>
  <circle cx="31.5" cy="20.5" r=".5" fill="white"/>
  <!-- Smile -->
  <path d="M22 27 Q26 31 30 27" stroke="#C2580A" stroke-width="1.3" stroke-linecap="round" fill="none"/>
  <!-- Hair -->
  <path d="M15 19 Q16 12 26 10 Q36 12 37 19" fill="#1e1b4b"/>
</svg>
