<svg xmlns="http://www.w3.org/2000/svg" viewBox="0 0 52 52">
  <!-- Sofia — Princess kid -->
  <circle cx="26" cy="26" r="26" fill="#FFF0E6"/>
  <!-- Crown -->
  <polygon points="14,18 18,10 22,15 26,8 30,15 34,10 38,18" fill="#F97316"/>
  <circle cx="26" cy="9" r="2" fill="#FFF0E6"/>
  <circle cx="18" cy="11" r="1.5" fill="#FFF0E6"/>
  <circle cx="34" cy="11" r="1.5" fill="#FFF0E6"/>
  <!-- Head -->
  <circle cx="26" cy="25" r="12" fill="#FCDDBF"/>
  <!-- Hair -->
  <ellipse cx="26" cy="16" rx="12" ry="6" fill="#C2580A"/>
  <ellipse cx="15" cy="25" rx="3" ry="7" fill="#C2580A"/>
  <ellipse cx="37" cy="25" rx="3" ry="7" fill="#C2580A"/>
  <!-- Face -->
  <circle cx="22" cy="25" r="1.5" fill="#7F77DD"/>
  <circle cx="30" cy="25" r="1.5" fill="#7F77DD"/>
  <path d="M22 29 Q26 32 30 29" stroke="#C2580A" stroke-width="1.2" stroke-linecap="round" fill="none"/>
  <ellipse cx="21" cy="27" rx="2" ry="1" fill="#F97316" opacity=".4"/>
  <ellipse cx="31" cy="27" rx="2" ry="1" fill="#F97316" opacity=".4"/>
  <!-- Dress -->
  <path d="M14 40 Q16 34 26 34 Q36 34 38 40 L40 52 H12 Z" fill="#F97316"/>
  <path d="M20 34 Q26 38 32 34" stroke="#FFF0E6" stroke-width="1.5" fill="none"/>
</svg>
